<?xml version="1.0" encoding="UTF-8" standalone="no"?>
<!-- Created with Inkscape (http://www.inkscape.org/) -->

<svg
   width="84mm"
   height="35mm"
   viewBox="0 0 84 35"
   version="1.1"
   id="svg1"
   sodipodi:docname="logo-nombre-footer.svg"
   inkscape:version="1.4.2 (f4327f4, 2025-05-13)"
   xmlns:inkscape="http://www.inkscape.org/namespaces/inkscape"
   xmlns:sodipodi="http://sodipodi.sourceforge.net/DTD/sodipodi-0.dtd"
   xmlns="http://www.w3.org/2000/svg"
   xmlns:svg="http://www.w3.org/2000/svg">
  <sodipodi:namedview
     id="namedview1"
     pagecolor="#ffffff"
     bordercolor="#000000"
     borderopacity="0.25"
     inkscape:showpageshadow="2"
     inkscape:pageopacity="0.0"
     inkscape:pagecheckerboard="0"
     inkscape:deskcolor="#d1d1d1"
     inkscape:document-units="mm"
     inkscape:zoom="5.5845982"
     inkscape:cx="123.2855"
     inkscape:cy="66.164115"
     inkscape:window-width="1920"
     inkscape:window-height="991"
     inkscape:window-x="-9"
     inkscape:window-y="-9"
     inkscape:window-maximized="1"
     inkscape:current-layer="layer1" />
  <defs
     id="defs1" />
  <g
     id="layer1">
    <path
       id="path115"
       d="m 14.379063,8.4958696 0.58332,-2.905619 c 0.16919,-0.808073 0.50267,-1.479797 1.00069,-2.0153836 0.49791,-0.535517 1.08518,-0.94421 1.7616,-1.226009 0.67648,-0.281904 1.3716,-0.455683 2.08569,-0.521476 0.71402,-0.06572 1.3717,-0.0375 1.97301,0.0846 0.60128,0.122096 1.08039,0.324096 1.4375,0.605895 l -1.6238,7.947977 c -0.11162,-0.06558 -0.22581,-0.129575 -0.34219,-0.192193 -1.1557,-0.6200774 -2.46631,-1.0804884 -3.93203,-1.3810904 -0.95719,-0.196391 -1.93848,-0.328612 -2.94379,-0.396698"
       style="fill:#d2ad6e;fill-opacity:1;fill-rule:nonzero;stroke:none;stroke-width:0.352778" />
    <path
       id="path116"
       d="m 3.4554782,10.301774 v 6.736503 c 0.8455734,-0.545006 1.8320814,-0.95832 2.9594884,-1.240296 1.127516,-0.281834 2.245506,-0.422733 3.354106,-0.422733 0.7140904,0 1.3952004,0.06583 2.0435004,0.197308 0.64819,0.131622 1.22139,0.333622 1.7193,0.606002 0.49791,0.272415 0.8926,0.620113 1.18378,1.042917 0.29122,0.422698 0.43691,0.925407 0.43691,1.507984 0,0.0187 0,0.0423 0,0.07041 0,0.02819 0,0.0563 0,0.08449 0,0.02829 0,0.0611 0,0.09871 -0.28179,-0.375814 -0.6436,-0.714022 -1.08511,-1.014695 -0.44157,-0.300602 -0.93958,-0.55432 -1.49387,-0.761012 -0.55432,-0.206587 -1.14162,-0.361703 -1.76152,-0.465102 -0.62019,-0.103294 -1.2591004,-0.155011 -1.9166804,-0.155011 -1.0148,0 -1.916712,0.0986 -2.705805,0.296016 -0.789305,0.197309 -1.470413,0.47438 -2.043501,0.831391 -0.5731234,0.357011 -1.0476094,0.770502 -1.4234234,1.24019 -0.375779,0.469724 -0.657578,0.967705 -0.845573,1.493908 -0.187819,0.526098 -0.281799,1.061615 -0.281799,1.606515 0,0.901876 0.187784,1.691181 0.563598,2.367597 0.375885,0.676487 0.887906,1.240191 1.536277,1.691182 0.6482294,0.451026 1.3810194,0.793926 2.1984054,1.0287 0.817315,0.234914 1.667721,0.352319 2.550791,0.352319 0.73283,0 1.47042,-0.07041 2.2126304,-0.211314 0.74217,-0.141005 1.4515,-0.380577 2.12799,-0.718679 0.39458,-0.92082 0.79389,-1.8415 1.19789,-2.76232 0.404,-0.920785 0.80331,-1.841394 1.19789,-2.762109 -0.22549,0.544901 -0.55428,0.883109 -0.98647,1.014624 -0.43222,0.131586 -0.81732,0.197309 -1.15563,0.197309 -0.69529,0 -1.23077,-0.145627 -1.60669,-0.436916 -0.37578,-0.291182 -0.5636,-0.615315 -0.5636,-0.97229 0,-0.357117 0.1832,-0.676522 0.54959,-0.958427 0.36643,-0.281799 0.90671,-0.422698 1.6207,-0.422698 0.3194,0 0.63891,0.04223 0.95821,0.126823 0.31951,0.0846 0.59189,0.230082 0.81739,0.43681 0.22553,0.206798 0.33831,0.479178 0.33831,0.817492 0,0.977088 0,1.958798 0,2.945376 0,0.986508 0,1.977602 0,2.973529 0.65762,0 1.31541,0 1.97302,0 0.65768,0 1.3153,0 1.97298,0 0.65772,0 1.3153,0 1.97291,0 0.65779,0 1.3154,0 1.97309,0 0.65771,0 1.31529,0 1.97301,0 0,-1.822732 0,-3.645429 0,-5.467914 0,-1.822697 0,-3.645394 0,-5.468091 0,-1.240119 -0.33821,-2.320607 -1.01459,-3.241392 -0.60833,-0.827935 -1.4103,-1.534125 -2.40591,-2.119031 l -0.5183,2.537108 c -0.545,-0.450992 -1.20731,-0.760977 -1.98709,-0.929993 -0.77992,-0.169192 -1.56443,-0.230294 -2.35352,-0.183198 -0.78931,0.04688 -1.48449,0.183198 -2.0858,0.408693 -0.60131,0.22539 -1.0052,0.516714 -1.212,0.87369 l 0.9387,-4.6762814 c -0.53389,-0.03619 -1.0747,-0.05429 -1.62228,-0.05429 -1.616,0 -3.2273204,0.155081 -4.8339004,0.464997 -1.606517,0.310091 -3.095698,0.775299 -4.4674044,1.3952004"
       style="fill:#d2ad6e;fill-opacity:1;fill-rule:evenodd;stroke:none;stroke-width:0.352778" />
    <path
       id="path117"
       d="m 29.174203,14.827902 h 1.69498 v -3.232878 c 0,-1.252636 0.39275,-1.7652664 1.31052,-1.7652664 0.78961,0 1.08727,0.5002274 1.08727,1.5130864 v 3.485058 h 1.69499 v -3.795117 c 0,-1.5254884 -0.45475,-2.5383464 -2.25723,-2.5383464 -0.63252,0 -1.37252,0.330729 -1.80247,1.02526 h -0.0331 v -3.212207 h -1.69498 z m 10.91716,-2.385384 c 0,0.367936 -0.0455,1.418001 -1.37253,1.418001 -0.54983,0 -1.03766,-0.152962 -1.03766,-0.785482 0,-0.620117 0.47956,-0.802018 1.00459,-0.909505 0.52503,-0.09508 1.12035,-0.107487 1.4056,-0.355534 z m -2.22002,-1.885156 c 0.062,-0.6697274 0.47956,-0.9301764 1.12448,-0.9301764 0.59531,0 1.09554,0.107487 1.09554,0.8350914 0,0.690397 -0.96738,0.65319 -2.00505,0.810286 -1.05006,0.144695 -2.10013,0.475424 -2.10013,1.872754 0,1.265039 0.93018,1.847949 2.10013,1.847949 0.75241,0 1.54203,-0.202571 2.07533,-0.760677 0.0124,0.202572 0.062,0.405144 0.11989,0.595313 h 1.71979 c -0.1571,-0.252181 -0.21497,-0.810287 -0.21497,-1.372526 v -3.208073 c 0,-1.4800134 -1.48002,-1.7528644 -2.70785,-1.7528644 -1.38493,0 -2.80293,0.475423 -2.89801,2.0629234 z m 5.2741,4.27054 h 1.69498 V 8.6598026 h -1.69498 z m 1.69498,-8.5204104 h -1.69498 v 1.397331 h 1.69498 z m 1.33739,8.5204104 h 1.69499 v -2.778125 c 0,-1.087272 0.42994,-1.984375 1.67018,-1.984375 0.20257,0 0.45062,0.0248 0.60771,0.06201 V 8.5523136 c -0.10748,-0.03721 -0.25218,-0.05788 -0.37207,-0.05788 -0.82268,0 -1.65778,0.5333 -1.96783,1.310514 h -0.0248 v -1.14515 h -1.60817 z m 0,0"
       style="fill:#d2ad6e;fill-opacity:1;fill-rule:nonzero;stroke:none;stroke-width:0.352778"
       aria-label="hair " />
    <path
       id="path118"
       d="m 29.219673,26.286632 h 1.69499 v -3.580143 c 0,-1.203027 0.81029,-1.418001 1.14515,-1.418001 1.07487,0 1.02526,0.822689 1.02526,1.537891 v 3.460253 h 1.69499 v -3.435449 c 0,-0.777213 0.1819,-1.562695 1.13274,-1.562695 0.96739,0 1.0418,0.677995 1.0418,1.500684 v 3.49746 h 1.69085 v -4.12998 c 0,-1.595768 -0.94257,-2.203483 -2.25309,-2.203483 -0.85989,0 -1.50482,0.487826 -1.86035,1.025261 -0.33486,-0.740007 -1.02939,-1.025261 -1.80247,-1.025261 -0.79789,0 -1.44281,0.367936 -1.88516,1.000456 h -0.0248 v -0.835091 h -1.59991 z m 16.61087,-2.670637 c 0.11989,-1.897559 -0.89296,-3.662826 -2.99309,-3.662826 -1.87689,0 -3.1502,1.405599 -3.1502,3.253548 0,1.909961 1.20303,3.24528 3.1502,3.24528 1.39319,0 2.41018,-0.620117 2.88561,-2.075325 h -1.49242 c -0.10748,0.384472 -0.65319,0.802018 -1.33532,0.802018 -0.94257,0 -1.46761,-0.49196 -1.51308,-1.562695 z m -4.4483,-1.07487 c 0.0207,-0.479558 0.33073,-1.314648 1.4056,-1.314648 0.82269,0 1.19476,0.454752 1.34772,1.314648 z m 9.85469,3.745507 h 1.60817 v -8.520409 h -1.69085 v 3.10472 h -0.0248 c -0.38448,-0.607715 -1.09968,-0.917774 -1.82728,-0.917774 -1.81074,0 -2.73265,1.537891 -2.73265,3.195671 0,1.707389 0.9095,3.303157 2.76985,3.303157 0.78549,0 1.48002,-0.285254 1.87276,-0.950846 h 0.0248 z m -0.0248,-3.100585 c 0,1.012858 -0.33487,1.992643 -1.45521,1.992643 -1.05007,0 -1.49242,-1.016992 -1.49242,-1.980241 0,-1.016992 0.38448,-1.971972 1.49242,-1.971972 1.09554,0 1.45521,0.95498 1.45521,1.95957 z m 2.95796,3.100585 h 1.69498 v -6.168098 h -1.69498 z m 1.69498,-8.520409 h -1.69498 v 1.39733 h 1.69498 z m 7.19646,4.522721 c -0.10748,-1.575098 -1.4428,-2.335775 -2.89801,-2.335775 -2.00505,0 -3.1502,1.418001 -3.1502,3.340365 0,1.847949 1.25264,3.158463 3.11299,3.158463 1.62057,0 2.75746,-0.892969 2.97243,-2.525944 h -1.63711 c -0.10749,0.748275 -0.5581,1.252637 -1.34772,1.252637 -1.06247,0 -1.40973,-1.062468 -1.40973,-1.947168 0,-0.905371 0.35966,-2.005045 1.44694,-2.005045 0.7028,0 1.14515,0.37207 1.25263,1.062467 z m 1.03663,3.997688 h 1.69499 v -6.168098 h -1.69499 z m 1.69499,-8.520409 h -1.69499 v 1.39733 h 1.69499 z m 1.33842,8.520409 h 1.69499 v -3.232877 c 0,-1.252637 0.39274,-1.765267 1.31051,-1.765267 0.78962,0 1.08727,0.500228 1.08727,1.513086 v 3.485058 h 1.69499 v -3.795117 c 0,-1.525488 -0.45475,-2.538346 -2.25723,-2.538346 -0.7152,0 -1.45521,0.330729 -1.88515,1.025261 h -0.0372 v -0.859896 h -1.60817 z m 12.92117,-2.670637 c 0.11989,-1.897559 -0.89297,-3.662826 -2.99309,-3.662826 -1.87689,0 -3.1502,1.405599 -3.1502,3.253548 0,1.909961 1.20302,3.24528 3.1502,3.24528 1.39319,0 2.41018,-0.620117 2.88561,-2.075325 h -1.49242 c -0.10748,0.384472 -0.65319,0.802018 -1.33532,0.802018 -0.94258,0 -1.46761,-0.49196 -1.51308,-1.562695 z m -4.4483,-1.07487 c 0.0207,-0.479558 0.33073,-1.314648 1.40559,-1.314648 0.82269,0 1.19476,0.454752 1.34773,1.314648 z m 0,0"
       style="fill:#d2ad6e;fill-opacity:1;fill-rule:nonzero;stroke:none;stroke-width:0.352778"
       aria-label="medicine" />
  </g>
</svg>
