<?xml version="1.0" encoding="UTF-8" standalone="no"?>
<!-- Created with Inkscape (http://www.inkscape.org/) -->

<svg
   width="28.513901mm"
   height="31.289467mm"
   viewBox="0 0 28.513901 31.289467"
   version="1.1"
   id="svg1"
   xmlns="http://www.w3.org/2000/svg"
   xmlns:svg="http://www.w3.org/2000/svg">
  <defs
     id="defs1" />
  <g
     id="layer1"
     transform="translate(-86.52408,-28.168349)">
    <path
       id="path4"
       d="m 102.08687,36.328423 0.71011,-3.537197 c 0.20591,-0.983827 0.612,-1.801495 1.21821,-2.453428 0.60618,-0.651969 1.32108,-1.149491 2.14461,-1.492568 0.82349,-0.343323 1.66969,-0.554813 2.53908,-0.634929 0.8691,-0.07998 1.66991,-0.04558 2.40189,0.103011 0.73201,0.14859 1.31522,0.394617 1.75002,0.737694 l -1.97689,9.6756 c -0.13582,-0.07969 -0.27482,-0.157692 -0.41664,-0.233892 -1.40687,-0.754909 -3.00238,-1.315296 -4.7867,-1.681303 -1.16529,-0.239113 -2.3598,-0.400086 -3.58369,-0.482988"
       style="fill:#373435;fill-opacity:1;fill-rule:nonzero;stroke:none;stroke-width:0.352778" />
    <path
       id="path5"
       d="m 88.78867,38.527004 v 8.200812 c 1.0294,-0.6634 2.2304,-1.1666 3.60292,-1.50989 1.37248,-0.34311 2.73349,-0.51463 4.08308,-0.51463 0.86942,0 1.69852,0.08 2.48783,0.2401 0.78909,0.1603 1.48688,0.40622 2.09299,0.7378 0.60618,0.33172 1.08659,0.75502 1.4411,1.26961 0.35457,0.5146 0.53188,1.1266 0.53188,1.83582 0,0.0228 0,0.0515 0,0.0857 0,0.0344 0,0.0686 0,0.10301 0,0.0343 0,0.0743 0,0.11998 -0.34308,-0.45748 -0.78348,-0.86921 -1.32098,-1.23518 -0.53752,-0.366 -1.14381,-0.67483 -1.81849,-0.92643 -0.6749,-0.2516 -1.38981,-0.44037 -2.14461,-0.56628 -0.75491,-0.12569 -1.53271,-0.18859 -2.33331,-0.18859 -1.23528,0 -2.33331,0.11998 -3.29399,0.36029 -0.96083,0.2401 -1.78999,0.5776 -2.48761,1.01219 -0.6978,0.43462 -1.2754,0.9379 -1.73288,1.50982 -0.45752,0.57178 -0.80063,1.17799 -1.02941,1.8185 -0.2287,0.64057 -0.34311,1.29247 -0.34311,1.9558 0,1.09798 0.22871,2.05877 0.68619,2.8823 0.45752,0.82349 1.08091,1.50978 1.87021,2.05877 0.7891,0.54903 1.6812,0.96651 2.67621,1.25233 0.99508,0.286 2.03027,0.42898 3.1054,0.42898 0.8921,0 1.78999,-0.0857 2.69349,-0.25728 0.90361,-0.1717 1.7671,-0.46331 2.59059,-0.875 0.48041,-1.12091 0.96651,-2.24183 1.45831,-3.36271 0.49192,-1.12092 0.97801,-2.24169 1.45839,-3.36261 -0.2745,0.6634 -0.6749,1.07509 -1.201,1.23522 -0.5262,0.16019 -0.99497,0.24027 -1.40681,0.24027 -0.84638,0 -1.49839,-0.17737 -1.95587,-0.53188 -0.45751,-0.35461 -0.68622,-0.74909 -0.68622,-1.18371 0,-0.4348 0.22303,-0.82349 0.66911,-1.16678 0.44598,-0.34311 1.10381,-0.51463 1.97298,-0.51463 0.38891,0 0.77781,0.0515 1.1666,0.15441 0.38891,0.10301 0.72052,0.28021 0.99501,0.53181 0.2745,0.25171 0.4118,0.58329 0.4118,0.99519 0,1.1895 0,2.3846 0,3.5856 0,1.20089 0,2.4076 0,3.61999 0.80059,0 1.6014,0 2.40199,0 0.80053,0 1.60112,0 2.40193,0 0.80059,0 1.60118,0 2.40167,0 0.80081,0 1.6014,0 2.40203,0 0.8007,0 1.60129,0 2.40189,0 0,-2.2189 0,-4.43787 0,-6.6566 0,-2.21897 0,-4.43787 0,-6.65677 0,-1.50971 -0.41169,-2.82501 -1.23522,-3.946 -0.74048,-1.00781 -1.71679,-1.867603 -2.92886,-2.57972 l -0.63102,3.08871 c -0.6634,-0.54899 -1.4696,-0.92639 -2.419,-1.1322 -0.94939,-0.20589 -1.9044,-0.28029 -2.86512,-0.223 -0.96079,0.0571 -1.80717,0.223 -2.53918,0.49749 -0.73202,0.2745 -1.22379,0.629 -1.4755,1.06359 l 1.14279,-5.692773 c -0.64999,-0.04403 -1.30838,-0.06601 -1.97488,-0.06601 -1.96741,0 -3.92892,0.188807 -5.8848,0.566102 -1.95572,0.377402 -3.76861,0.943681 -5.43852,1.698484"
       style="fill:#373435;fill-opacity:1;fill-rule:evenodd;stroke:none;stroke-width:0.352778" />
  </g>
</svg>
